<?xml version="1.0" encoding="utf-8"?>
<!-- Generator: Adobe Illustrator 16.0.4, SVG Export Plug-In . SVG Version: 6.00 Build 0)  -->
<!DOCTYPE svg PUBLIC "-//W3C//DTD SVG 1.1//EN" "http://www.w3.org/Graphics/SVG/1.1/DTD/svg11.dtd">
<svg version="1.1" id="Layer_1" xmlns="http://www.w3.org/2000/svg" xmlns:xlink="http://www.w3.org/1999/xlink" x="0px" y="0px"
	 width="207px" height="137px" viewBox="0 0 207 137" enable-background="new 0 0 207 137" xml:space="preserve">
<g>
	<path fill="#FFFFFF" d="M152.93,95.018c0,1.578-1.279,2.857-2.857,2.857H93.159c-1.578,0-2.857-1.279-2.857-2.857v-55.92
		c0-1.578,1.279-2.857,2.857-2.857h56.914c1.578,0,2.857,1.279,2.857,2.857V95.018z"/>
	<g>
		<linearGradient id="SVGID_1_" gradientUnits="userSpaceOnUse" x1="121.6157" y1="36.5571" x2="121.6157" y2="98.1914">
			<stop  offset="0" style="stop-color:#4F659F"/>
			<stop  offset="1" style="stop-color:#3D5293"/>
		</linearGradient>
		<path fill="url(#SVGID_1_)" d="M152.93,95.018v-55.92c0-1.578-1.279-2.857-2.857-2.857h-5.096h-46.72h-5.098
			c-1.574,0-2.849,1.272-2.855,2.843v50.837l-0.001,5.102c0.002,1.574,1.281,2.852,2.857,2.852h31.607V73.131h-8.159v-8.525h8.159
			v-9.259c0-5.548,5.031-9.276,9.09-9.276h9.133v7.756h-4.213c-2.076,0-4.844,1.686-4.844,3.758v7.02h8.229v8.525h-8.229v24.745
			h11.045h5.096C151.65,97.875,152.93,96.596,152.93,95.018z"/>
		<path fill="#3F508A" d="M150.072,98.232h-16.498V72.774h8.229v-7.811h-8.229v-7.377c0-2.216,2.859-4.115,5.201-4.115h3.855v-7.042
			h-8.775c-3.648,0-8.732,3.393-8.732,8.919v9.616h-8.159v7.811h8.159v25.458H93.159c-1.769,0-3.211-1.439-3.214-3.208l0.001-55.939
			c0.008-1.766,1.449-3.201,3.213-3.201h56.914c1.771,0,3.215,1.442,3.215,3.214v55.92C153.287,96.79,151.844,98.232,150.072,98.232
			z M134.289,97.518h15.783c1.379,0,2.5-1.122,2.5-2.5v-55.92c0-1.378-1.121-2.5-2.5-2.5H93.159c-1.371,0-2.492,1.116-2.499,2.487
			l-0.001,55.938c0.002,1.375,1.124,2.494,2.5,2.494h31.25v-24.03h-8.158v-9.239h8.158v-8.902c0-5.513,4.988-9.633,9.447-9.633h9.49
			v8.471h-4.57c-1.979,0-4.486,1.602-4.486,3.401v6.663h8.227v9.239h-8.227V97.518z"/>
	</g>
</g>
</svg>
