<?xml version="1.0" encoding="utf-8"?>
<!-- Generator: Adobe Illustrator 16.0.4, SVG Export Plug-In . SVG Version: 6.00 Build 0)  -->
<!DOCTYPE svg PUBLIC "-//W3C//DTD SVG 1.1//EN" "http://www.w3.org/Graphics/SVG/1.1/DTD/svg11.dtd">
<svg version="1.1" id="Layer_1" xmlns="http://www.w3.org/2000/svg" xmlns:xlink="http://www.w3.org/1999/xlink" x="0px" y="0px"
	 width="207px" height="137px" viewBox="0 0 207 137" enable-background="new 0 0 207 137" xml:space="preserve">
<path fill="#3CA8DF" d="M156.104,45.621c-2.544,1.128-5.277,1.89-8.145,2.233c2.927-1.755,5.176-4.534,6.234-7.846
	c-2.74,1.625-5.775,2.806-9.006,3.441c-2.586-2.756-6.271-4.478-10.35-4.478c-7.832,0-14.182,6.349-14.182,14.181
	c0,1.111,0.125,2.193,0.367,3.231c-11.785-0.591-22.234-6.237-29.229-14.816c-1.221,2.094-1.92,4.53-1.92,7.129
	c0,4.92,2.503,9.261,6.309,11.804c-2.325-0.074-4.512-0.712-6.424-1.774c-0.001,0.059-0.001,0.119-0.001,0.178
	c0,6.871,4.888,12.602,11.376,13.905c-1.19,0.324-2.443,0.498-3.736,0.498c-0.914,0-1.803-0.089-2.668-0.254
	c1.805,5.633,7.041,9.734,13.246,9.848c-4.853,3.804-10.967,6.071-17.611,6.071c-1.145,0-2.273-0.067-3.383-0.198
	c6.275,4.023,13.73,6.372,21.738,6.372c26.084,0,40.348-21.608,40.348-40.348c0-0.615-0.014-1.226-0.041-1.834
	C151.798,50.962,154.201,48.465,156.104,45.621z"/>
</svg>
